<?xml version="1.0" encoding="UTF-8"?>
<!--Generator: Apple Native CoreSVG 326-->
<!DOCTYPE svg
PUBLIC "-//W3C//DTD SVG 1.1//EN"
       "http://www.w3.org/Graphics/SVG/1.1/DTD/svg11.dtd">
<svg version="1.1" xmlns="http://www.w3.org/2000/svg" xmlns:xlink="http://www.w3.org/1999/xlink" viewBox="0 0 40.2148 39.8633">
 <g>
  <rect height="39.8633" opacity="0" width="40.2148" x="0" y="0"/>
  <path d="M19.9219 39.8438C30.918 39.8438 39.8438 30.918 39.8438 19.9219C39.8438 8.92578 30.918 0 19.9219 0C8.92578 0 0 8.92578 0 19.9219C0 30.918 8.92578 39.8438 19.9219 39.8438ZM19.9219 36.5234C10.7422 36.5234 3.32031 29.1016 3.32031 19.9219C3.32031 10.7422 10.7422 3.32031 19.9219 3.32031C29.1016 3.32031 36.5234 10.7422 36.5234 19.9219C36.5234 29.1016 29.1016 36.5234 19.9219 36.5234Z" fill="#3bbae8"/>
  <path d="M10.8594 19.9219C10.8594 20.8789 11.5234 21.5234 12.5195 21.5234L18.2617 21.5234L18.2617 27.2852C18.2617 28.2617 18.9258 28.9453 19.8828 28.9453C20.8594 28.9453 21.543 28.2812 21.543 27.2852L21.543 21.5234L27.3047 21.5234C28.2812 21.5234 28.9648 20.8789 28.9648 19.9219C28.9648 18.9453 28.2812 18.2617 27.3047 18.2617L21.543 18.2617L21.543 12.5195C21.543 11.5234 20.8594 10.8398 19.8828 10.8398C18.9258 10.8398 18.2617 11.5234 18.2617 12.5195L18.2617 18.2617L12.5195 18.2617C11.5234 18.2617 10.8594 18.9453 10.8594 19.9219Z" fill="#3bbae8"/>
 </g>
</svg>
