<?xml version="1.0" encoding="UTF-8"?>
<!--Generator: Apple Native CoreSVG 326-->
<!DOCTYPE svg
PUBLIC "-//W3C//DTD SVG 1.1//EN"
       "http://www.w3.org/Graphics/SVG/1.1/DTD/svg11.dtd">
<svg version="1.1" xmlns="http://www.w3.org/2000/svg" xmlns:xlink="http://www.w3.org/1999/xlink" viewBox="0 0 40.2148 39.8633">
 <g>
  <rect height="39.8633" opacity="0" width="40.2148" x="0" y="0"/>
  <path d="M19.9219 39.8438C30.918 39.8438 39.8438 30.918 39.8438 19.9219C39.8438 8.92578 30.918 0 19.9219 0C8.92578 0 0 8.92578 0 19.9219C0 30.918 8.92578 39.8438 19.9219 39.8438ZM19.9219 36.5234C10.7422 36.5234 3.32031 29.1016 3.32031 19.9219C3.32031 10.7422 10.7422 3.32031 19.9219 3.32031C29.1016 3.32031 36.5234 10.7422 36.5234 19.9219C36.5234 29.1016 29.1016 36.5234 19.9219 36.5234Z" fill="#00b1ec"/>
  <path d="M10.9766 29.8242L28.8281 29.8242C29.6094 29.8242 29.9805 29.2969 29.9805 28.5938C29.9805 26.4453 26.7578 20.8984 19.9023 20.8984C13.0469 20.8984 9.82422 26.4453 9.82422 28.5938C9.82422 29.2969 10.1953 29.8242 10.9766 29.8242ZM19.9023 19.3164C22.6758 19.3359 24.9219 16.9531 24.9219 13.8281C24.9219 10.8984 22.6758 8.47656 19.9023 8.47656C17.1289 8.47656 14.8828 10.8984 14.8828 13.8281C14.8828 16.9531 17.1289 19.2969 19.9023 19.3164Z" fill="#00b1ec"/>
 </g>
</svg>
