<?xml version="1.0" encoding="UTF-8"?>
<!--Generator: Apple Native CoreSVG 326-->
<!DOCTYPE svg
PUBLIC "-//W3C//DTD SVG 1.1//EN"
       "http://www.w3.org/Graphics/SVG/1.1/DTD/svg11.dtd">
<svg version="1.1" xmlns="http://www.w3.org/2000/svg" xmlns:xlink="http://www.w3.org/1999/xlink" viewBox="0 0 40.2148 39.8633">
 <g>
  <rect height="39.8633" opacity="0" width="40.2148" x="0" y="0"/>
  <path d="M39.8438 19.9414C39.8438 30.9375 30.918 39.8633 19.9219 39.8633C8.94531 39.8633 0 30.9375 0 19.9414C0 8.96484 8.94531 0.0195312 19.9219 0.0195312C30.918 0.0195312 39.8438 8.96484 39.8438 19.9414ZM9.53125 28.9062C9.53125 29.6484 9.90234 30.1758 10.7227 30.1758L29.1211 30.1758C29.9414 30.1758 30.3125 29.6484 30.3125 28.9062C30.3125 26.7188 26.9922 20.9961 19.9219 20.9961C12.8516 20.9961 9.53125 26.7188 9.53125 28.9062ZM14.7461 13.6719C14.7461 16.9141 17.0703 19.3164 19.9219 19.3359C22.7734 19.3555 25.0977 16.9141 25.0977 13.6719C25.0977 10.6641 22.7734 8.16406 19.9219 8.16406C17.0703 8.16406 14.7461 10.6641 14.7461 13.6719Z" fill="#00b1ec"/>
 </g>
</svg>
